HIERARCHY
ROOT Hips
{
  OFFSET 1.44925e-005 102.336 -0.101585
  CHANNELS 6 Xposition Yposition Zposition Zrotation Xrotation Yrotation
  JOINT LeftUpLeg
  {
    OFFSET 8.9458 -8.66707 0.101652
    CHANNELS 3 Zrotation Xrotation Yrotation
    JOINT LeftLeg
    {
      OFFSET 0 -44.4227 1.3727
      CHANNELS 3 Zrotation Xrotation Yrotation
      JOINT LeftFoot
      {
        OFFSET -0.253549 -42.0924 -1.46059
        CHANNELS 3 Zrotation Xrotation Yrotation
        JOINT LeftToes
        {
          OFFSET -0.04 -4.41509 8.4991
          CHANNELS 3 Zrotation Xrotation Yrotation
          End Site
          {
            OFFSET 0.08 -0.047448 9.77979
          }
        }
      }
    }
  }
  JOINT Spine
  {
    OFFSET 0 11.8905 0
    CHANNELS 3 Zrotation Xrotation Yrotation
    JOINT Spine1
    {
      OFFSET 0 25.6574 0.127663
      CHANNELS 3 Zrotation Xrotation Yrotation
      JOINT RightShoulder
      {
        OFFSET -8.99 -0.362252 -0.22
        CHANNELS 3 Zrotation Xrotation Yrotation
        JOINT RightArm
        {
          OFFSET -10.2827 -0.00338 0.322123
          CHANNELS 3 Zrotation Xrotation Yrotation
          JOINT RightForeArm
          {
            OFFSET -26.364 0.099144 -1.42434
            CHANNELS 3 Zrotation Xrotation Yrotation
            JOINT RightHand
            {
              OFFSET -22.0324 0.085362 1.02216
              CHANNELS 3 Zrotation Xrotation Yrotation
              End Site
              {
                OFFSET -13.3284 -0.6 1.50291
              }
            }
          }
        }
      }
      JOINT LeftShoulder1
      {
        OFFSET 8.99 -0.362252 -0.22
        CHANNELS 3 Zrotation Xrotation Yrotation
        JOINT LeftArm
        {
          OFFSET 10.2827 -0.00337999 0.322123
          CHANNELS 3 Zrotation Xrotation Yrotation
          JOINT LeftForeArm
          {
            OFFSET 26.2597 0.099144 -1.42434
            CHANNELS 3 Zrotation Xrotation Yrotation
            JOINT LeftHand
            {
              OFFSET 22.0902 0.085362 1.02216
              CHANNELS 3 Zrotation Xrotation Yrotation
              End Site
              {
                OFFSET 13.419 -0.6 1.50291
              }
            }
          }
        }
      }
      JOINT Head
      {
        OFFSET 0 8.73416 0.011341
        CHANNELS 3 Zrotation Xrotation Yrotation
        End Site
        {
          OFFSET -0.29 12.7742 2.51395
        }
      }
    }
  }
  JOINT RightUpLeg
  {
    OFFSET -8.9458 -8.66707 0.101652
    CHANNELS 3 Zrotation Xrotation Yrotation
    JOINT RightLeg
    {
      OFFSET 0 -44.4227 1.3727
      CHANNELS 3 Zrotation Xrotation Yrotation
      JOINT RightFoot
      {
        OFFSET 0.253549 -42.0924 -1.46059
        CHANNELS 3 Zrotation Xrotation Yrotation
        JOINT RightToes
        {
          OFFSET 0.04 -4.41509 8.4991
          CHANNELS 3 Zrotation Xrotation Yrotation
          End Site
          {
            OFFSET -0.08 -0.137448 9.77979
          }
        }
      }
    }
  }
}
MOTION
Frames:	16
Frame Time:	0.0333333
36.1993 97.6514 4.76087 -7.77487 -3.35663 -94.533 -10.268 15.9811 2.27711 -0.107827 14.5951 17.6781 -1.38397 -26.5878 -0.0894307 -1.42915e-009 8.75192e-006 -1.47458e-008 -3.49597 19.3066 -0.984994 -1.80345 -0.502154 -1.1832 37.6958 1.80042 0.105745 37.6209 -20.9368 -3.79253 11.5542 46.8669 1.37331 -12.2163 9.26915 0.958243 -43.5658 3.46755 -3.4108 -26.2511 -20.7413 -8.61197 6.32698 30.4767 -42.4885 5.82328 9.61819 -0.917488 -1.90523 -18.6791 -2.2767 -4.9544 -35.4043 -7.654 -1.12302 45.4424 -13.5011 11.5701 -11.5945 0.20599 0.0462048 0.000530889 0.662642 
30.7342 96.3466 4.57437 -8.40093 -3.42358 -92.9049 -9.82145 20.7301 3.69911 -0.11365 14.0935 14.8821 -2.01117 -28.4146 -0.218865 -1.42915e-009 8.75192e-006 -1.47458e-008 -4.26808 19.4089 -1.5358 0.340961 0.285379 -2.24243 37.6974 1.79295 0.0885826 35.4407 -22.6577 -7.61944 11.1558 46.1917 1.38336 -12.139 9.29365 0.748763 -43.2426 3.45151 -3.42747 -26.7572 -23.3986 -10.694 8.65016 31.062 -48.3598 5.82328 9.61819 -0.917488 -1.86643 -19.2813 -2.08465 -4.66577 -33.1866 -7.68956 -0.928483 32.2727 -13.7615 12.2923 -13.1477 0.395244 0.0462048 0.000530889 0.662642 
24.8571 94.8675 4.20515 -8.83866 -3.51822 -90.525 -8.69082 24.5918 5.19905 0.329123 15.764 11.3224 -2.97683 -29.9082 -0.437155 -1.42915e-009 8.75192e-006 -1.47458e-008 -5.52084 19.0199 -2.26634 3.1269 1.05831 -3.71865 37.5088 1.78083 0.0769731 33.3507 -24.9337 -10.8259 11.0416 46.5072 0.282911 -12.1018 9.3136 0.561822 -42.6361 3.4069 -3.42963 -27.7475 -25.3142 -11.895 10.5826 31.3793 -52.6737 5.82328 9.61819 -0.917488 -1.94086 -19.5945 -1.91467 -4.57481 -30.4288 -7.07986 -0.822961 23.7304 -15.4714 13.0522 -15.823 0.720953 0.0462048 0.000530889 0.662642 
18.5929 93.7795 3.79584 -8.47221 -2.77064 -87.9588 -6.28398 27.2621 5.7275 1.13862 18.1826 8.03204 -5.7707 -30.1315 -1.01487 -1.42915e-009 8.75192e-006 -1.47458e-008 -5.36265 17.63 -3.21473 5.52484 1.66068 -5.12333 37.3278 1.76468 0.0553351 30.9346 -27.4217 -14.3095 10.7745 46.3027 -0.780284 -11.9555 9.34004 0.36267 -42.3533 3.38792 -3.43421 -28.2744 -26.0923 -11.6978 11.6913 31.4618 -55.1162 5.82328 9.61819 -0.917488 -2.07341 -19.2178 -1.97227 -3.8286 -28.6273 -6.73398 -0.484388 21.7601 -17.1625 11.6997 -16.0172 0.65183 0.0462048 0.000530889 0.662642 
12.0584 93.045 3.47432 -7.85224 -0.822389 -86.8162 -2.798 28.5789 4.65904 1.11329 22.2073 6.96455 -10.5164 -27.6319 -1.74169 -1.42915e-009 8.75192e-006 -1.47458e-008 -2.47728 15.9689 -4.03778 6.01377 1.61357 -5.56385 37.2808 1.75377 0.0342145 28.3096 -29.6045 -17.8015 10.361 45.1217 -1.43079 -11.6401 9.38448 0.0507525 -42.6466 3.4308 -3.4765 -27.8857 -26.0028 -9.64687 12.1141 31.4899 -55.994 5.82328 9.61819 -0.917488 -2.27113 -18.207 -2.09313 -1.29856 -28.4569 -7.50426 -0.775068 25.6367 -16.1126 7.74636 -12.1402 0.123376 0.0462048 0.000530889 0.662642 
5.5688 92.4519 3.1952 -7.78794 1.57648 -87.5487 0.729251 27.6601 4.62865 0.644247 30.7005 7.66068 -13.0461 -20.0681 -1.36813 -1.42915e-009 8.75192e-006 -1.47458e-008 1.81396 15.1948 -4.38698 5.01655 1.07114 -4.97996 37.3156 1.75432 0.0325286 26.6012 -31.1423 -19.3404 10.1474 43.8742 -2.09336 -11.3102 9.43234 -0.309405 -43.0806 3.49153 -3.5326 -27.4207 -25.609 -6.40644 12.078 31.6349 -55.4327 5.82328 9.61819 -0.917488 -2.39921 -17.4627 -1.92567 2.44776 -29.0657 -6.25736 -1.05167 32.6549 -15.5088 2.89408 -7.8826 -0.176205 0.0462048 0.000530889 0.662642 
-0.404905 92.2148 2.83408 -8.18341 3.84089 -88.5867 3.94367 23.1942 5.3871 1.01879 43.9457 9.9741 -11.1423 -6.59137 0.0946098 -1.42915e-009 8.75192e-006 -1.47458e-008 5.02517 15.3086 -4.47902 4.69417 1.03907 -4.3656 37.3019 1.75783 0.041768 26.9619 -32.0734 -17.5 10.1532 43.2115 -2.58884 -11.2931 9.44388 -0.431467 -43.3232 3.52009 -3.55254 -27.7786 -24.5821 -3.81793 11.2104 31.8905 -52.5608 5.82328 9.61819 -0.917488 -2.23426 -17.8931 -1.60648 5.97111 -28.4254 -4.42245 -1.12937 38.6747 -15.8848 -0.838719 -8.11559 -0.189412 0.0462048 0.000530889 0.662642 
-5.59928 92.2406 2.42512 -8.46175 5.72904 -87.7651 6.90501 15.0989 3.74871 1.51084 59.0711 13.6871 -8.55437 5.86237 0.972608 -1.42915e-009 8.75192e-006 -1.47458e-008 7.07998 15.479 -4.91818 5.74151 1.8824 -4.3304 37.2183 1.75226 0.0360068 29.2624 -32.2155 -13.3143 9.9277 42.3363 -1.70362 -11.6245 9.41237 -0.244306 -43.4577 3.52139 -3.5345 -28.8872 -21.6275 -3.14111 9.13862 32.015 -46.5319 5.82328 9.61819 -0.917488 -1.76151 -19.0336 -1.79781 8.26396 -26.5701 -4.40122 -1.22776 42.3999 -16.6738 -2.04581 -12.5166 -0.283846 0.0462048 0.000530889 0.662642 
-10.5623 92.855 2.0974 -8.52457 6.77382 -86.0154 8.29443 5.82894 1.54538 2.53272 71.8651 14.9958 -6.78915 9.31736 0.945156 -1.42915e-009 8.75192e-006 -1.47458e-008 8.81643 15.3147 -5.32158 6.33678 2.36078 -4.2675 37.1022 1.73932 0.0159447 32.2972 -31.2761 -8.91512 9.25658 40.251 1.36492 -11.9541 9.37855 -0.0419941 -43.6441 3.52452 -3.51225 -29.9219 -16 -3.66059 6.2313 31.5187 -38.1806 5.82328 9.61819 -0.917488 -1.3096 -19.3892 -2.87023 9.40729 -23.2517 -5.48346 -1.27307 42.9287 -17.3041 -0.957324 -16.7929 -0.309872 0.0462048 0.000530889 0.662642 
-15.7803 94.2308 1.90821 -8.54674 6.96553 -85.4096 7.80653 -2.54583 0.885691 4.52517 79.6337 12.3187 -4.61218 4.98672 0.46378 -1.42915e-009 8.75192e-006 -1.47458e-008 10.2208 15.0243 -4.94354 5.24337 1.81552 -3.42241 36.9156 1.73128 0.0130766 35.3374 -27.9349 -4.87948 8.37143 36.1205 6.10919 -12.1633 9.36297 0.0182926 -43.8964 3.53405 -3.4928 -30.5398 -8.64539 -3.75407 3.27459 29.8437 -29.7914 5.82328 9.61819 -0.917488 -1.15055 -18.2833 -4.35242 9.86058 -18.4057 -6.01203 -1.2342 40.7164 -17.235 0.476373 -18.9022 -0.201265 0.0462048 0.000530889 0.662642 
-21.0625 95.7291 1.82366 -8.51061 6.57823 -86.2391 6.49173 -9.85884 1.47234 5.81918 82.1529 9.56285 -4.0943 -0.744771 0.23039 -1.42915e-009 8.75192e-006 -1.47458e-008 10.9904 14.7471 -3.92019 3.55618 1.04126 -2.02621 36.6085 1.73087 0.0382177 37.9469 -18.7237 -0.710608 7.16981 27.8776 11.8908 -12.4909 9.33132 0.179737 -44.1056 3.53495 -3.463 -31.2099 -3.53097 -2.58827 0.809882 28.7186 -23.1597 5.82328 9.61819 -0.917488 -1.29604 -16.5139 -5.49313 9.74571 -13.0627 -6.03103 -1.16936 37.5726 -16.409 1.11675 -20.3381 -0.130501 0.0462048 0.000530889 0.662642 
-26.3792 96.9737 1.73745 -8.41092 5.70974 -87.5819 4.8276 -16.4333 2.16563 4.78299 80.5359 11.0584 -4.45125 -3.77935 0.160949 -1.42915e-009 8.75192e-006 -1.47458e-008 10.7518 14.2958 -2.69096 2.1914 0.502913 -0.700626 36.2335 1.72775 0.0631252 38.84 -7.34379 3.372 5.70514 19.5246 17.9028 -12.9079 9.26317 0.645586 -44.2101 3.52595 -3.42964 -31.6398 -7.07538 -0.290598 -1.94625 33.7053 -18.0163 5.82328 9.61819 -0.917488 -1.6138 -15.0889 -6.08744 8.93003 -7.52862 -6.08694 -0.822349 34.0134 -15.2001 1.5321 -22.0609 -0.0701405 0.0462048 0.000530889 0.662642 
-31.7032 97.9263 1.63108 -8.3617 4.63329 -88.7945 3.09643 -21.7711 2.5094 3.33033 75.2882 15.1891 -4.04854 -6.36868 0.0685226 -1.42915e-009 8.75192e-006 -1.47458e-008 10.1315 13.754 -1.6062 0.638365 0.104076 0.318551 35.8521 1.71604 0.0685558 38.5695 -2.24581 7.37346 4.09411 17.7098 23.3227 -12.9708 9.21124 1.11547 -44.2135 3.51292 -3.40356 -31.0304 -13.0365 2.72948 -4.9283 39.268 -13.415 5.82328 9.61819 -0.917488 -1.92383 -14.2065 -6.34222 7.71582 -1.80351 -5.18687 0.191176 29.9456 -15.0862 2.06745 -23.1264 0.0115753 0.0462048 0.000530889 0.662642 
-36.9377 98.4507 1.56263 -8.40448 3.86287 -89.9059 2.0219 -25.2541 2.58292 2.36056 66.0219 18.6703 -4.53117 -9.48332 -0.0335289 -1.42915e-009 8.75192e-006 -1.47458e-008 9.99175 13.2072 -0.812743 -1.22879 -0.012142 1.11351 35.4184 1.70127 0.0712287 38.7681 -3.90219 11.46 2.85338 20.8822 28.1344 -12.4628 9.23674 1.14466 -44.1622 3.49551 -3.37701 -29.6236 -17.3095 6.19068 -7.43596 42.4554 -9.56036 5.82328 9.61819 -0.917488 -2.20009 -13.6789 -6.29794 6.72742 3.71961 -4.63934 0.715614 26.0188 -14.5522 2.13703 -23.5818 0.0272032 0.0462048 0.000530889 0.662642 
-42.1552 98.604 1.49074 -8.36047 3.14576 -91.2104 1.35864 -26.8218 2.16539 1.6858 52.835 19.2284 -5.84185 -10.3918 -0.0920506 -1.42915e-009 8.75192e-006 -1.47458e-008 9.37944 12.4407 -0.0191962 -2.72853 0.367954 1.78333 34.968 1.68949 0.0825759 39.1415 -5.19957 15.635 2.58922 21.6023 32.4498 -11.7878 9.3109 0.764536 -44.1693 3.48198 -3.34938 -27.8736 -20.1167 9.89471 -9.14274 44.224 -6.71994 5.82328 9.61819 -0.917488 -2.50936 -13.4737 -5.87645 5.67652 9.09526 -5.02731 0.637151 22.0815 -12.8561 2.1544 -24.3106 0.0398899 0.0462048 0.000530889 0.662642 
-47.3379 98.4382 1.37388 -8.14599 2.21451 -92.6431 0.50733 -26.8476 0.183151 1.15627 37.4278 17.5866 -5.9641 -9.66363 -0.0625225 -1.42915e-009 8.75192e-006 -1.47458e-008 7.85772 11.5882 0.883085 -3.83293 1.07538 2.46513 34.6953 1.6826 0.0900997 39.5949 -6.64376 19.4894 2.81538 21.5664 36.3029 -11.4511 9.35844 0.439638 -44.3054 3.48614 -3.33745 -25.9399 -21.8335 13.56 -10.3889 45.4172 -4.48987 5.82328 9.61819 -0.917488 -2.73995 -13.5602 -5.28845 4.24506 14.2313 -5.86 0.385096 18.1371 -10.3301 3.15489 -25.2795 0.213177 0.0462048 0.000530889 0.662642 
